<?xml version="1.0" encoding="utf-8"?>
<!-- Generator: Adobe Illustrator 22.0.0, SVG Export Plug-In . SVG Version: 6.00 Build 0)  -->
<svg version="1.1" id="Capa_1" xmlns="http://www.w3.org/2000/svg" xmlns:xlink="http://www.w3.org/1999/xlink" x="0px" y="0px"
	 viewBox="0 0 792 388.5" style="enable-background:new 0 0 792 388.5;" xml:space="preserve">
<style type="text/css">
	.st0{display:none;fill:#274267;}
	.st1{fill:none;}
	.st2{fill:#CA611E;}
	.st3{fill:#4972AE;}
	.st4{fill:#6E95BF;}
	.st5{opacity:0;fill:none;stroke:#FFFFFF;stroke-width:3;stroke-miterlimit:10;}
</style>
<rect x="31" y="3.5" class="st0" width="687" height="385"/>
<g>
	<g>
		<rect x="-6.4" y="322" class="st1" width="804" height="67.1"/>
		<path class="st2" d="M15.7,322h39.4v11.1H31.7v9h20v10.4h-20v21.1h-16V322z"/>
		<path class="st2" d="M88.7,365.1H70.6l-2.5,8.5H51.8L71.2,322h17.4l19.4,51.6H91.3L88.7,365.1z M85.4,354l-5.7-18.6L74,354H85.4z"
			/>
		<path class="st2" d="M113.1,322h16v18.1h17.4V322h16v51.6h-16v-20.9h-17.4v20.9h-16V322z"/>
		<path class="st2" d="M173.3,373.7V322h26.6c4.9,0,8.7,0.4,11.3,1.3c2.6,0.8,4.7,2.4,6.3,4.7s2.4,5.1,2.4,8.4
			c0,2.9-0.6,5.3-1.8,7.4c-1.2,2.1-2.9,3.8-5,5.1c-1.4,0.8-3.2,1.5-5.6,2c1.9,0.6,3.3,1.3,4.2,1.9c0.6,0.4,1.4,1.3,2.6,2.7
			c1.1,1.4,1.9,2.5,2.2,3.2l7.7,15h-18l-8.5-15.8c-1.1-2-2-3.4-2.9-4c-1.2-0.8-2.5-1.2-3.9-1.2h-1.4v21H173.3z M189.4,343h6.7
			c0.7,0,2.1-0.2,4.2-0.7c1.1-0.2,1.9-0.8,2.6-1.6c0.7-0.9,1-1.9,1-3c0-1.7-0.5-2.9-1.6-3.8c-1.1-0.9-3-1.3-6-1.3h-7V343z"/>
		<path class="st2" d="M229.2,322h42.8v11h-26.8v8.2H270v10.5h-24.8V362h27.5v11.7h-43.5V322z"/>
		<path class="st2" d="M281.4,322h14.9l19.4,28.6V322h15v51.6h-15l-19.3-28.3v28.3h-15V322z"/>
		<path class="st2" d="M341.5,322h16v18.1h17.4V322h16v51.6h-16v-20.9h-17.4v20.9h-16V322z"/>
		<path class="st2" d="M401.4,322h42.8v11h-26.8v8.2h24.8v10.5h-24.8V362H445v11.7h-43.5V322z"/>
		<path class="st2" d="M454.2,322h16v51.6h-16V322z"/>
		<path class="st2" d="M478,322h48.5v12.7h-16.3v38.9h-16v-38.9H478V322z"/>
		<path class="st2" d="M555,356.6l15.2-1c0.3,2.5,1,4.3,2,5.6c1.6,2.1,4,3.1,7,3.1c2.3,0,4-0.5,5.3-1.6c1.2-1.1,1.8-2.3,1.8-3.7
			c0-1.3-0.6-2.5-1.8-3.6c-1.2-1.1-3.9-2.1-8.2-3c-7-1.6-12-3.7-15-6.3c-3-2.6-4.5-5.9-4.5-10c0-2.7,0.8-5.2,2.3-7.5
			c1.5-2.4,3.9-4.2,6.9-5.6c3.1-1.3,7.3-2,12.7-2c6.6,0,11.6,1.2,15.1,3.7s5.5,6.4,6.2,11.7l-15,0.9c-0.4-2.3-1.2-4-2.5-5.1
			c-1.3-1.1-3-1.6-5.3-1.6c-1.9,0-3.3,0.4-4.2,1.2c-0.9,0.8-1.4,1.7-1.4,2.9c0,0.8,0.4,1.6,1.2,2.2c0.8,0.7,2.5,1.3,5.4,1.9
			c7,1.5,12,3,15,4.6c3,1.5,5.2,3.4,6.6,5.7c1.4,2.3,2.1,4.8,2.1,7.6c0,3.3-0.9,6.4-2.7,9.2s-4.4,4.9-7.7,6.4
			c-3.3,1.4-7.4,2.2-12.4,2.2c-8.8,0-14.9-1.7-18.2-5.1S555.4,361.8,555,356.6z"/>
		<path class="st2" d="M608.9,359.3h15.3v14.4h-15.3V359.3z"/>
		<path class="st2" d="M634.1,373.7V322h26.6c4.9,0,8.7,0.4,11.3,1.3c2.6,0.8,4.7,2.4,6.3,4.7c1.6,2.3,2.4,5.1,2.4,8.4
			c0,2.9-0.6,5.3-1.8,7.4c-1.2,2.1-2.9,3.8-5,5.1c-1.4,0.8-3.2,1.5-5.6,2c1.9,0.6,3.3,1.3,4.2,1.9c0.6,0.4,1.4,1.3,2.6,2.7
			c1.1,1.4,1.9,2.5,2.2,3.2l7.7,15h-18l-8.5-15.8c-1.1-2-2-3.4-2.9-4c-1.2-0.8-2.5-1.2-3.9-1.2h-1.4v21H634.1z M650.1,343h6.7
			c0.7,0,2.1-0.2,4.2-0.7c1.1-0.2,1.9-0.8,2.6-1.6s1-1.9,1-3c0-1.7-0.5-2.9-1.6-3.8s-3-1.3-6-1.3h-7V343z"/>
		<path class="st2" d="M689,359.3h15.3v14.4H689V359.3z"/>
		<path class="st2" d="M714,322h16V361h24.9v12.7H714V322z"/>
		<path class="st2" d="M761.2,359.3h15.3v14.4h-15.3V359.3z"/>
	</g>
	<g>
		<g>
			<g>
				<path class="st3" d="M386,301.2c-0.5,0-1-0.3-1.1-0.8c-29.4-101.4-25-230.4-25-231.7c0-0.6,0.6-1.2,1.2-1.1
					c0.6,0,1.1,0.6,1.1,1.2c0,1.3-4.5,129.8,24.9,230.9c0.2,0.6-0.2,1.2-0.8,1.4C386.2,301.2,386.1,301.2,386,301.2z"/>
			</g>
			<g>
				<path class="st3" d="M379.6,301.2c-0.5,0-1-0.3-1.1-0.8C349,199,353.5,70,353.5,68.7c0-0.6,0.6-1.2,1.2-1.1
					c0.6,0,1.1,0.6,1.1,1.2c0,1.3-4.5,129.8,24.9,230.9c0.2,0.6-0.2,1.2-0.8,1.4C379.8,301.2,379.7,301.2,379.6,301.2z"/>
			</g>
			<g>
				<path class="st3" d="M373.7,301.2c-0.5,0-1-0.3-1.1-0.8c-29.4-101.4-25-230.4-25-231.7c0-0.6,0.6-1.2,1.2-1.1
					c0.6,0,1.1,0.6,1.1,1.2c0,1.3-4.5,129.8,24.9,230.9c0.2,0.6-0.2,1.2-0.8,1.4C373.9,301.2,373.8,301.2,373.7,301.2z"/>
			</g>
			<g>
				<path class="st3" d="M367.9,301.2c-0.5,0-1-0.3-1.1-0.8c-29.4-101.4-25-230.4-25-231.7c0-0.6,0.6-1.2,1.2-1.1
					c0.6,0,1.1,0.6,1.1,1.2c0,1.3-4.5,129.8,24.9,230.9c0.2,0.6-0.2,1.2-0.8,1.4C368.1,301.2,368,301.2,367.9,301.2z"/>
			</g>
		</g>
		<g>
			<g>
				<path class="st3" d="M404.2,301.2c-0.1,0-0.2,0-0.3,0c-0.6-0.2-1-0.8-0.8-1.4C432.4,198.7,428,70.1,427.9,68.8
					c0-0.6,0.5-1.2,1.1-1.2c0.7-0.1,1.2,0.5,1.2,1.1c0,1.3,4.5,130.2-25,231.7C405.1,300.9,404.7,301.2,404.2,301.2z"/>
			</g>
			<g>
				<path class="st3" d="M410.6,301.2c-0.1,0-0.2,0-0.3,0c-0.6-0.2-1-0.8-0.8-1.4c29.3-101.1,24.9-229.6,24.9-230.9
					c0-0.6,0.5-1.2,1.1-1.2c0.7-0.1,1.2,0.5,1.2,1.1c0,1.3,4.5,130.2-25,231.7C411.5,300.9,411.1,301.2,410.6,301.2z"/>
			</g>
			<g>
				<path class="st3" d="M416.5,301.2c-0.1,0-0.2,0-0.3,0c-0.6-0.2-1-0.8-0.8-1.4c29.3-101.1,24.9-229.6,24.9-230.9
					c0-0.6,0.5-1.2,1.1-1.2c0,0,0,0,0,0c0.6,0,1.1,0.5,1.1,1.1c0,1.3,4.5,130.2-25,231.7C417.5,300.9,417,301.2,416.5,301.2z"/>
			</g>
			<g>
				<path class="st3" d="M422.3,301.2c-0.1,0-0.2,0-0.3,0c-0.6-0.2-1-0.8-0.8-1.4C450.5,198.7,446.1,70.1,446,68.8
					c0-0.6,0.5-1.2,1.1-1.2c0.7-0.1,1.2,0.5,1.2,1.1c0,1.3,4.5,130.2-25,231.7C423.2,300.9,422.8,301.2,422.3,301.2z"/>
			</g>
		</g>
		<polygon class="st4" points="352.7,300.1 352.7,15.5 279.7,37.3 316.2,300.1 		"/>
		<polygon class="st3" points="352.7,300.1 352.7,15.5 369.5,40 358.4,300.1 		"/>
		<line class="st5" x1="334.9" y1="300.1" x2="316.2" y2="24.2"/>
		<g>
			<path class="st3" d="M216.1,302c-0.4,0-0.9-0.1-1.2-0.5c-0.8-0.7-0.9-1.9-0.2-2.7c42.2-49.9,67.6-109.3,81.4-150.3
				c15-44.5,20.1-77.6,20.1-77.9c0.2-1,1.1-1.8,2.2-1.6c1,0.2,1.8,1.1,1.6,2.2c0,0.3-5.2,33.7-20.3,78.5
				c-14,41.4-39.5,101.2-82.2,151.6C217.1,301.8,216.6,302,216.1,302z"/>
		</g>
		<g>
			<path class="st3" d="M240.6,302c-0.4,0-0.9-0.2-1.3-0.5c-0.8-0.7-0.9-1.9-0.2-2.7c58.8-67.8,81.9-171.1,82.1-172.2
				c0.2-1,1.2-1.7,2.3-1.5c1,0.2,1.7,1.2,1.5,2.3c-0.1,0.3-5.9,26.5-18.9,60.9c-12.1,31.7-33,77.1-64,112.9
				C241.7,301.8,241.2,302,240.6,302z"/>
		</g>
		<g>
			<path class="st3" d="M262,302c-0.4,0-0.8-0.1-1.2-0.4c-0.8-0.6-1-1.9-0.3-2.7c42.8-55.5,63.8-129.6,64-130.4
				c0.3-1,1.3-1.6,2.4-1.3c1,0.3,1.6,1.3,1.3,2.4c-0.2,0.7-21.4,75.6-64.6,131.7C263.2,301.7,262.6,302,262,302z"/>
		</g>
		<g>
			<path class="st3" d="M281.8,302c-0.4,0-0.7-0.1-1.1-0.3c-0.9-0.6-1.1-1.8-0.5-2.7c31.9-47.7,47.2-96.1,47.3-96.6
				c0.3-1,1.4-1.6,2.4-1.3c1,0.3,1.6,1.4,1.3,2.4c-0.2,0.5-15.5,49.4-47.8,97.6C283,301.7,282.4,302,281.8,302z"/>
		</g>
		<g>
			<path class="st3" d="M297.3,302c-0.4,0-0.8-0.1-1.1-0.3c-0.9-0.6-1.1-1.8-0.5-2.7c20.4-29.7,33.6-62.8,33.7-63.1
				c0.4-1,1.5-1.5,2.5-1.1c1,0.4,1.5,1.5,1.1,2.5c-0.1,0.3-13.5,33.8-34.1,63.9C298.5,301.7,297.9,302,297.3,302z"/>
		</g>
		<polygon class="st3" points="395.6,307.8 154.4,307.8 358.4,280.6 395.6,280.6 		"/>
		<polygon class="st4" points="437.5,300.1 437.5,15.5 510.5,37.3 474,300.1 		"/>
		<polygon class="st3" points="437.5,300.1 437.5,15.5 420.7,40 431.8,300.1 		"/>
		<line class="st5" x1="455.2" y1="300.1" x2="474" y2="24.2"/>
		<g>
			<g>
				<path class="st3" d="M574.1,302c-0.5,0-1.1-0.2-1.5-0.7c-42.6-50.4-68.2-110.3-82.2-151.6c-15.1-44.8-20.2-78.2-20.3-78.5
					c-0.2-1,0.6-2,1.6-2.2c1.1-0.2,2,0.6,2.2,1.6c0,0.3,5.1,33.4,20.1,77.9c13.8,41,39.2,100.4,81.4,150.3c0.7,0.8,0.6,2-0.2,2.7
					C575,301.9,574.6,302,574.1,302z"/>
			</g>
			<g>
				<path class="st3" d="M549.5,302c-0.5,0-1.1-0.2-1.5-0.7c-31.1-35.8-52-81.2-64-112.9c-13.1-34.4-18.9-60.6-18.9-60.9
					c-0.2-1,0.4-2.1,1.5-2.3c1-0.2,2.1,0.4,2.3,1.5c0.2,1,23.4,104.4,82.1,172.2c0.7,0.8,0.6,2-0.2,2.7
					C550.4,301.9,550,302,549.5,302z"/>
			</g>
			<g>
				<path class="st3" d="M528.1,302c-0.6,0-1.1-0.3-1.5-0.7c-43.3-56.1-64.4-130.9-64.6-131.7c-0.3-1,0.3-2.1,1.3-2.4
					c1-0.3,2.1,0.3,2.4,1.3c0.2,0.7,21.2,74.9,64,130.4c0.6,0.8,0.5,2-0.3,2.7C529,301.9,528.6,302,528.1,302z"/>
			</g>
			<g>
				<path class="st3" d="M508.4,302c-0.6,0-1.2-0.3-1.6-0.9c-32.2-48.2-47.6-97.1-47.8-97.6c-0.3-1,0.3-2.1,1.3-2.4
					c1-0.3,2.1,0.2,2.4,1.3c0.1,0.5,15.4,48.9,47.3,96.6c0.6,0.9,0.4,2.1-0.5,2.7C509.1,301.9,508.7,302,508.4,302z"/>
			</g>
			<g>
				<path class="st3" d="M492.9,302c-0.6,0-1.2-0.3-1.6-0.8c-20.7-30.1-34-63.6-34.1-63.9c-0.4-1,0.1-2.1,1.1-2.5
					c1-0.4,2.1,0.1,2.5,1.1c0.1,0.3,13.3,33.4,33.7,63.1c0.6,0.9,0.4,2.1-0.5,2.7C493.6,301.9,493.2,302,492.9,302z"/>
			</g>
		</g>
		<polygon class="st3" points="394.6,307.8 635.8,307.8 431.8,280.6 394.6,280.6 		"/>
	</g>
</g>
<g>
</g>
<g>
</g>
<g>
</g>
<g>
</g>
<g>
</g>
<g>
</g>
</svg>
